<svg width="40" height="40" viewBox="0 0 40 40" fill="none" xmlns="http://www.w3.org/2000/svg">
<rect x="40" y="1.74846e-06" width="40" height="40" rx="8" transform="rotate(90 40 1.74846e-06)" fill="#7FC8FF"/>
<path d="M12.8594 27.1436H18.0898C18.0887 30.0312 15.7473 32.372 12.8594 32.3721C9.97078 32.3721 7.62898 30.0302 7.62891 27.1416C7.62891 24.253 9.97074 21.9111 12.8594 21.9111V27.1436ZM27.1445 21.9111C30.0331 21.9112 32.375 24.253 32.375 27.1416C32.3749 30.0301 30.0331 32.372 27.1445 32.3721C24.2566 32.3721 21.9152 30.0312 21.9141 27.1436H27.1436V21.9111H27.1445ZM12.8594 7.62988C15.7476 7.62995 18.0893 9.97123 18.0898 12.8594H12.8594V18.0908C9.97078 18.0908 7.62898 15.7489 7.62891 12.8604C7.62891 9.97171 9.97074 7.62988 12.8594 7.62988ZM27.1445 7.62988C30.0331 7.62995 32.375 9.97175 32.375 12.8604C32.3749 15.7489 30.0331 18.0908 27.1445 18.0908L27.1436 18.0898V12.8594H21.9141C21.9146 9.97119 24.2562 7.62988 27.1445 7.62988Z" fill="#030710"/>
</svg>
